<svg xmlns="http://www.w3.org/2000/svg" viewBox="0 0 724.74 122.89"><defs><style>.cls-1{fill:#fff;}</style></defs><g id="Layer_2" data-name="Layer 2"><g id="Layer_1-2" data-name="Layer 1"><path class="cls-1" d="M27.85,0H95a27.86,27.86,0,0,1,27.86,27.86V95A27.86,27.86,0,0,1,95,122.89H27.85A27.85,27.85,0,0,1,0,95V27.85A27.85,27.85,0,0,1,27.85,0Z"/><path d="M82.16,66.44a1.76,1.76,0,0,1-.14.23,4.8,4.8,0,0,1-3.07,2,4.37,4.37,0,0,1-1,.1H73.05L65.23,54.45a4.38,4.38,0,0,0-7.77-.08L37.92,90.32l-.1.16a5.9,5.9,0,0,1-2.22,2.24,5.76,5.76,0,0,1-8.42-6.36,6,6,0,0,1,.55-1.42L56.12,32.71l.05-.09a5.91,5.91,0,0,1,4.56-3.15,5.69,5.69,0,0,1,5.65,3L82.25,61.64A4.79,4.79,0,0,1,82.16,66.44Zm3.19-6.77L69.71,30.9a9.62,9.62,0,0,0-7.43-5.08,9.34,9.34,0,0,0-9.23,4.88L24.51,83.19a9.61,9.61,0,0,0-.74,1.8,9.4,9.4,0,0,0,9,12.12,9.78,9.78,0,0,0,1.79-.17,8.89,8.89,0,0,0,.89-.22A9.29,9.29,0,0,0,41,92.26L60.68,56.11a.73.73,0,0,1,1.29,0l6.92,12.71H59.76l-2,3.65H78a8.07,8.07,0,0,0,1.11-.07,8.23,8.23,0,0,0,4-1.59,8.44,8.44,0,0,0,2.84-3.68A8.73,8.73,0,0,0,85.35,59.67Z"/><path d="M94.36,96a9.35,9.35,0,0,1-4.48,1.14,9.64,9.64,0,0,1-4.67-1.22A9.79,9.79,0,0,1,81.48,92L79,87.45h4.16l1.54,2.84a5.89,5.89,0,0,0,6.7,2.95A5.77,5.77,0,0,0,94.93,85a.49.49,0,0,0-.44-.28H51.15l2-3.66H75.52l-3.29-6h4.16l3.29,6H94.49a4.13,4.13,0,0,1,3.65,2.19A9.43,9.43,0,0,1,94.36,96Z"/><path class="cls-1" d="M194.79,70.2H170.26l-4.65,11h-8.55l21.47-48.63h8.41L208.2,81.18h-8.76Zm-3.13-7.29L182.49,41.3l-9.17,21.61Z"/><path class="cls-1" d="M240.51,74.16c7.92,0,12.85-4.86,12.85-13.13V32.55h8.2V61c0,12.71-8,20.5-21.12,20.5S219.25,73.74,219.25,61V32.55h8.2V61C227.45,69.23,232.52,74.16,240.51,74.16Z"/><path class="cls-1" d="M313.46,32.55v7.36H298V81.18h-8.2V39.91H274.49V32.55Z"/><path class="cls-1" d="M372,56.86c0,13.9-11.25,24.67-25.77,24.67s-25.78-10.77-25.78-24.67,11.26-24.52,25.78-24.52S372,43,372,56.86Zm-43.21,0a17.43,17.43,0,0,0,17.51,17.3,17.23,17.23,0,1,0-17.51-17.3Z"/><path class="cls-1" d="M407.47,39.63a17.13,17.13,0,1,0,0,34.25A20.14,20.14,0,0,0,421,68.12l4.86,5.42a27.62,27.62,0,0,1-18.83,8c-14.24,0-25.29-10.77-25.29-24.74,0-13.82,11.19-24.45,25.57-24.45a26.87,26.87,0,0,1,18.48,7.5l-4.79,6A19,19,0,0,0,407.47,39.63Z"/><path class="cls-1" d="M487.65,56.86c0,13.9-11.26,24.67-25.78,24.67S436.1,70.76,436.1,56.86s11.25-24.52,25.77-24.52S487.65,43,487.65,56.86Zm-43.22,0a17.43,17.43,0,0,0,17.51,17.3,17.23,17.23,0,1,0-17.51-17.3Z"/><path class="cls-1" d="M534.2,81.18l-8.89-14.73c-.7.07-1.46.07-2.23.07H511.55V81.18h-8.2V32.55h19.73c12.44,0,19.6,6,19.6,16.6,0,7.78-3.62,13.27-10.08,15.77l10.91,16.26Zm-11.12-22c7.51,0,11.81-3.19,11.81-9.79,0-6.39-4.3-9.45-11.81-9.45H511.55V59.15Z"/><path class="cls-1" d="M599.16,49.15c0,11-7,17.37-19.24,17.37H568.73V81.18h-8.19V32.55h19.38C592.15,32.55,599.16,38.59,599.16,49.15Zm-7.85.21c0-6.39-4.24-9.45-11.74-9.45H568.73V59.15h10.84C587.07,59.15,591.31,56,591.31,49.36Z"/><path class="cls-1" d="M617.86,77.15a4.39,4.39,0,1,1-8.76,0,4.38,4.38,0,1,1,8.76,0Z"/><path class="cls-1" d="M665.79,70.2H641.27l-4.66,11h-8.54l21.47-48.63h8.4L679.2,81.18h-8.75Zm-3.12-7.29L653.5,41.3l-9.17,21.61Z"/><path class="cls-1" d="M700.81,32.55V81.18h-8.19V32.55Z"/><path class="cls-1" d="M715.18,27.66V29h-2.47V35.6h-1.53V29h-2.47V27.66Z"/><path class="cls-1" d="M718,27.66l2.49,5.09L723,27.66h1.74V35.6h-1.38V29.93L721,34.78h-1l-2.35-4.85V35.6h-1.41V27.66Z"/></g></g></svg>